REM DIRINDEX 1\3,1\2\4,1\2\5,1\2\6
REM DIRNAME folder01,folder02,folder03,folder04,folder05,folder06
TITLE ""
FILE "018.mp3" MP3
  TRACK 01 AUDIO
    TITLE "4:cjc137_0717"
    INDEX 01 00:00:00
  TRACK 02 AUDIO
    TITLE "0:"
    INDEX 01 00:01:09
  TRACK 03 AUDIO
    TITLE "6:cjc137_0718"
    INDEX 01 00:01:17
  TRACK 04 AUDIO
    TITLE "0:"
    INDEX 01 00:02:18
  TRACK 05 AUDIO
    TITLE "5:cjc137_0719"
    INDEX 01 00:02:26
  TRACK 06 AUDIO
    TITLE "0:"
    INDEX 01 00:03:33
  TRACK 07 AUDIO
    TITLE "4:cjc137_0720"
    INDEX 01 00:04:42
  TRACK 08 AUDIO
    TITLE "0:"
    INDEX 01 00:05:42
  TRACK 09 AUDIO
    TITLE "6:cjc137_0721"
    INDEX 01 00:05:50
  TRACK 10 AUDIO
    TITLE "0:"
    INDEX 01 00:06:59
  TRACK 11 AUDIO
    TITLE "5:cjc137_0722"
    INDEX 01 00:06:67
  TRACK 12 AUDIO
    TITLE "0:"
    INDEX 01 00:07:68
  TRACK 13 AUDIO
    TITLE "4:cjc137_0723"
    INDEX 01 00:09:00
  TRACK 14 AUDIO
    TITLE "0:"
    INDEX 01 00:10:02
  TRACK 15 AUDIO
    TITLE "6:cjc137_0724"
    INDEX 01 00:10:12
  TRACK 16 AUDIO
    TITLE "0:"
    INDEX 01 00:11:33
  TRACK 17 AUDIO
    TITLE "5:cjc137_0725"
    INDEX 01 00:11:40
  TRACK 18 AUDIO
    TITLE "0:"
    INDEX 01 00:12:42
  TRACK 19 AUDIO
    TITLE "4:cjc137_0726"
    INDEX 01 00:13:51
  TRACK 20 AUDIO
    TITLE "0:"
    INDEX 01 00:14:56
  TRACK 21 AUDIO
    TITLE "6:cjc137_0727"
    INDEX 01 00:14:64
  TRACK 22 AUDIO
    TITLE "0:"
    INDEX 01 00:15:72
  TRACK 23 AUDIO
    TITLE "5:cjc137_0728"
    INDEX 01 00:16:06
  TRACK 24 AUDIO
    TITLE "0:"
    INDEX 01 00:17:12
  TRACK 25 AUDIO
    TITLE "4:cjc137_0729"
    INDEX 01 00:18:21
  TRACK 26 AUDIO
    TITLE "0:"
    INDEX 01 00:19:28
  TRACK 27 AUDIO
    TITLE "6:cjc137_0730"
    INDEX 01 00:19:34
  TRACK 28 AUDIO
    TITLE "0:"
    INDEX 01 00:20:51
  TRACK 29 AUDIO
    TITLE "5:cjc137_0731"
    INDEX 01 00:20:61
  TRACK 30 AUDIO
    TITLE "0:"
    INDEX 01 00:21:68
  TRACK 31 AUDIO
    TITLE "4:cjc137_0732"
    INDEX 01 00:22:74
  TRACK 32 AUDIO
    TITLE "0:"
    INDEX 01 00:24:00
  TRACK 33 AUDIO
    TITLE "6:cjc137_0733"
    INDEX 01 00:24:10
  TRACK 34 AUDIO
    TITLE "0:"
    INDEX 01 00:24:74
  TRACK 35 AUDIO
    TITLE "5:cjc137_0734"
    INDEX 01 00:25:05
  TRACK 36 AUDIO
    TITLE "0:"
    INDEX 01 00:26:03
  TRACK 37 AUDIO
    TITLE "4:cjc137_0735"
    INDEX 01 00:27:16
  TRACK 38 AUDIO
    TITLE "0:"
    INDEX 01 00:28:23
  TRACK 39 AUDIO
    TITLE "6:cjc137_0736"
    INDEX 01 00:28:33
  TRACK 40 AUDIO
    TITLE "0:"
    INDEX 01 00:29:27
  TRACK 41 AUDIO
    TITLE "5:cjc137_0737"
    INDEX 01 00:29:34
  TRACK 42 AUDIO
    TITLE "0:"
    INDEX 01 00:30:42
  TRACK 43 AUDIO
    TITLE "4:cjc137_0738"
    INDEX 01 00:31:53
  TRACK 44 AUDIO
    TITLE "0:"
    INDEX 01 00:32:60
  TRACK 45 AUDIO
    TITLE "6:cjc137_0739"
    INDEX 01 00:32:70
  TRACK 46 AUDIO
    TITLE "0:"
    INDEX 01 00:34:18
  TRACK 47 AUDIO
    TITLE "5:cjc137_0740"
    INDEX 01 00:34:28
  TRACK 48 AUDIO
    TITLE "0:"
    INDEX 01 00:35:33
  TRACK 49 AUDIO
    TITLE "4:cjc137_0741"
    INDEX 01 00:36:44
  TRACK 50 AUDIO
    TITLE "0:"
    INDEX 01 00:37:61
  TRACK 51 AUDIO
    TITLE "6:cjc137_0742"
    INDEX 01 00:37:67
  TRACK 52 AUDIO
    TITLE "0:"
    INDEX 01 00:39:21
  TRACK 53 AUDIO
    TITLE "5:cjc137_0743"
    INDEX 01 00:39:27
  TRACK 54 AUDIO
    TITLE "0:"
    INDEX 01 00:40:42
  TRACK 55 AUDIO
    TITLE "4:cjc137_0744"
    INDEX 01 00:41:51
  TRACK 56 AUDIO
    TITLE "0:"
    INDEX 01 00:42:57
  TRACK 57 AUDIO
    TITLE "6:cjc137_0745"
    INDEX 01 00:42:65
  TRACK 58 AUDIO
    TITLE "0:"
    INDEX 01 00:43:66
  TRACK 59 AUDIO
    TITLE "5:cjc137_0746"
    INDEX 01 00:43:74
  TRACK 60 AUDIO
    TITLE "0:"
    INDEX 01 00:45:02
  TRACK 61 AUDIO
    TITLE "4:cjc137_0747"
    INDEX 01 00:46:11
  TRACK 62 AUDIO
    TITLE "0:"
    INDEX 01 00:47:15
  TRACK 63 AUDIO
    TITLE "6:cjc137_0748"
    INDEX 01 00:47:23
  TRACK 64 AUDIO
    TITLE "0:"
    INDEX 01 00:49:02
  TRACK 65 AUDIO
    TITLE "5:cjc137_0749"
    INDEX 01 00:49:10
  TRACK 66 AUDIO
    TITLE "0:"
    INDEX 01 00:50:11
  TRACK 67 AUDIO
    TITLE "4:cjc137_0750"
    INDEX 01 00:51:20
  TRACK 68 AUDIO
    TITLE "0:"
    INDEX 01 00:52:30
  TRACK 69 AUDIO
    TITLE "6:cjc137_0751"
    INDEX 01 00:52:37
  TRACK 70 AUDIO
    TITLE "0:"
    INDEX 01 00:53:33
  TRACK 71 AUDIO
    TITLE "5:cjc137_0752"
    INDEX 01 00:53:41
  TRACK 72 AUDIO
    TITLE "0:"
    INDEX 01 00:54:48
  TRACK 73 AUDIO
    TITLE "4:cjc137_0753"
    INDEX 01 00:55:55
  TRACK 74 AUDIO
    TITLE "0:"
    INDEX 01 00:56:63
  TRACK 75 AUDIO
    TITLE "6:cjc137_0754"
    INDEX 01 00:56:67
  TRACK 76 AUDIO
    TITLE "0:"
    INDEX 01 00:57:52
  TRACK 77 AUDIO
    TITLE "5:cjc137_0755"
    INDEX 01 00:57:56
  TRACK 78 AUDIO
    TITLE "0:"
    INDEX 01 00:58:60
  TRACK 79 AUDIO
    TITLE "4:cjc137_0756"
    INDEX 01 00:59:69
  TRACK 80 AUDIO
    TITLE "0:"
    INDEX 01 01:01:03
  TRACK 81 AUDIO
    TITLE "6:cjc137_0757"
    INDEX 01 01:01:09
  TRACK 82 AUDIO
    TITLE "0:"
    INDEX 01 01:02:10
  TRACK 83 AUDIO
    TITLE "5:cjc137_0758"
    INDEX 01 01:02:18
  TRACK 84 AUDIO
    TITLE "0:"
    INDEX 01 01:03:27
